<svg xmlns="http://www.w3.org/2000/svg" width="56" height="56" fill="none">
  <rect width="56" height="56" fill="#101010" rx="8"/>
  <path fill="#fff" d="M26.952 19.412c-.84 0-1.26-.42-1.26-1.26 0-.84.42-1.26 1.26-1.26.84 0 1.26.42 1.26 1.26 0 .84-.42 1.26-1.26 1.26Zm-12.24 24.084c-.888 0-1.608-.228-2.16-.684-.576-.432-.864-.996-.864-1.692 0-.912.408-1.74 1.224-2.484.96-.888 2.376-1.548 4.248-1.98l5.04-.9c.408-.792.816-1.752 1.224-2.88a57.538 57.538 0 0 0 1.224-3.96 57.66 57.66 0 0 0 .936-3.852c.216-1.104.324-1.992.324-2.664 0-.408.24-.612.72-.612.408 0 .612.276.612.828 0 1.392-.396 3.492-1.188 6.3a76.945 76.945 0 0 1-1.152 3.528 24.966 24.966 0 0 1-1.152 2.844c1.536-.456 2.736-1.068 3.6-1.836a9.54 9.54 0 0 0 1.152-1.224c.384-.504.72-.984 1.008-1.44.12-.216.264-.408.432-.576.168-.168.312-.252.432-.252.096 0 .204.024.324.072.12.048.18.144.18.288 0 .216-.048.408-.144.576a12.618 12.618 0 0 1-2.952 3.6c-1.2.984-2.796 1.74-4.788 2.268a19.42 19.42 0 0 1-1.476 2.268 13.499 13.499 0 0 1-1.728 1.944c-1.752 1.68-3.444 2.52-5.076 2.52Zm-.144-1.26c2.328 0 4.596-1.692 6.804-5.076-.408.048-.948.132-1.62.252-.672.12-1.464.264-2.376.432-2.832.648-4.248 1.74-4.248 3.276 0 .744.48 1.116 1.44 1.116Zm17.187 3.204c-.816 0-1.5-.492-2.052-1.476-.624-1.128-.936-2.7-.936-4.716 0-.576.024-1.2.072-1.872.024-.648.084-1.344.18-2.088a1.382 1.382 0 0 1-.432-1.008c0-.456.228-.828.684-1.116.744-4.392 1.896-8.904 3.456-13.536 2.376-6.936 4.752-10.404 7.128-10.404 1.2 0 1.8.744 1.8 2.232 0 1.896-.924 4.824-2.772 8.784-2.76 5.832-5.388 9.264-7.884 10.296l-.396 2.376c1.176.096 2.28.756 3.312 1.98 1.176-.24 2.328-.72 3.456-1.44 1.128-.72 2.004-1.608 2.628-2.664.12-.216.276-.42.468-.612.216-.192.384-.288.504-.288.24 0 .36.144.36.432 0 .264-.036.456-.108.576-.768 1.392-1.728 2.472-2.88 3.24-1.152.768-2.472 1.32-3.96 1.656.48 1.008.72 2.256.72 3.744 0 1.824-.372 3.3-1.116 4.428-.648.984-1.392 1.476-2.232 1.476Zm-.396-16.56c1.968-1.728 4.044-4.692 6.228-8.892 1.824-3.552 2.736-6.324 2.736-8.316 0-.96-.216-1.44-.648-1.44-.504 0-1.176.6-2.016 1.8-1.032 1.464-2.028 3.516-2.988 6.156a92.25 92.25 0 0 0-1.764 5.148 102.186 102.186 0 0 0-1.548 5.544Zm.54 15.336c.504-.072.96-.516 1.368-1.332.408-.816.612-1.872.612-3.168 0-1.632-.264-2.868-.792-3.708a8.759 8.759 0 0 1-1.368.108c-.288 0-.564-.024-.828-.072-.24-.024-.48-.06-.72-.108-.048.552-.096 1.092-.144 1.62a33.353 33.353 0 0 0-.036 1.512c0 1.824.216 3.192.648 4.104.36.744.78 1.092 1.26 1.044Z"/>
</svg>
